<?xml version="1.0" encoding="UTF-8"?>
<svg width="20px" height="20px" viewBox="0 0 20 20" version="1.1" xmlns="http://www.w3.org/2000/svg" xmlns:xlink="http://www.w3.org/1999/xlink">
    <!-- Generator: sketchtool 52.4 (67378) - http://www.bohemiancoding.com/sketch -->
    <title>02D5C1F6-B5A9-439E-A5AA-D8BAD6FDB551</title>
    <desc>Created with sketchtool.</desc>
    <g id="Page-1" stroke="none" stroke-width="1" fill="none" fill-rule="evenodd">
        <g id="BFF-Search-results" transform="translate(-1068.000000, -588.000000)" fill="#FF7313">
            <g id="Stacked-Group-2" transform="translate(241.000000, 387.000000)">
                <g id="Stacked-Group">
                    <g id="Cards-/-List-1-up-/-Filled-/-Avatar-/-Resting" transform="translate(0.000000, 168.000000)">
                        <g id="Icon-and-Text" transform="translate(827.000000, 32.000000)">
                            <path d="M9.1796875,20.1796875 L9.1796875,15.1796875 L10.8203125,15.1796875 L10.8203125,20.1796875 L9.1796875,20.1796875 Z M4.6875,15.140625 L6.484375,13.34375 L7.65625,14.515625 L5.859375,16.3125 L4.6875,15.140625 Z M12.34375,14.515625 L13.515625,13.34375 L15.3125,15.140625 L14.140625,16.3125 L12.34375,14.515625 Z M8.2421875,9.2421875 C8.73698164,8.74739336 9.32291328,8.5 10,8.5 C10.6770867,8.5 11.2630184,8.74739336 11.7578125,9.2421875 C12.2526066,9.73698164 12.5,10.3229133 12.5,11 C12.5,11.6770867 12.2526066,12.2630184 11.7578125,12.7578125 C11.2630184,13.2526066 10.6770867,13.5 10,13.5 C9.32291328,13.5 8.73698164,13.2526066 8.2421875,12.7578125 C7.74739336,12.2630184 7.5,11.6770867 7.5,11 C7.5,10.3229133 7.74739336,9.73698164 8.2421875,9.2421875 Z M14.1796875,10.1796875 L19.1796875,10.1796875 L19.1796875,11.8203125 L14.1796875,11.8203125 L14.1796875,10.1796875 Z M15.3125,6.859375 L13.515625,8.65625 L12.34375,7.484375 L14.140625,5.6875 L15.3125,6.859375 Z M10.8203125,1.8203125 L10.8203125,6.8203125 L9.1796875,6.8203125 L9.1796875,1.8203125 L10.8203125,1.8203125 Z M7.65625,7.484375 L6.484375,8.65625 L4.6875,6.859375 L5.859375,5.6875 L7.65625,7.484375 Z M5.8203125,10.1796875 L5.8203125,11.8203125 L0.8203125,11.8203125 L0.8203125,10.1796875 L5.8203125,10.1796875 Z" id="î¤-copy"></path>
                        </g>
                    </g>
                </g>
            </g>
        </g>
    </g>
</svg>