<?xml version="1.0" encoding="UTF-8"?>
<svg width="19px" height="21px" viewBox="0 0 19 21" version="1.1" xmlns="http://www.w3.org/2000/svg" xmlns:xlink="http://www.w3.org/1999/xlink">
    <!-- Generator: sketchtool 52.4 (67378) - http://www.bohemiancoding.com/sketch -->
    <title>8EDC687F-C5E8-4B18-86FC-5849DD4AB9D9</title>
    <desc>Created with sketchtool.</desc>
    <g id="Page-1" stroke="none" stroke-width="1" fill="none" fill-rule="evenodd">
        <g id="BFF-Search-results" transform="translate(-1122.000000, -503.000000)" fill="#5262A9">
            <g id="Stacked-Group-2" transform="translate(241.000000, 387.000000)">
                <g id="Stacked-Group">
                    <g id="Cards-/-List-1-up-/-Filled-/-Avatar-/-Resting" transform="translate(0.000000, 84.000000)">
                        <g id="Icon-and-Text" transform="translate(880.000000, 32.000000)">
                            <path d="M10.5273438,0.90234375 L19.25,5.5 L19.25,7.34765625 L1.84765625,7.34765625 L1.84765625,5.5 L10.5273438,0.90234375 Z M14.6523438,9.15234375 L17.4023438,9.15234375 L17.4023438,15.5976562 L14.6523438,15.5976562 L14.6523438,9.15234375 Z M1.84765625,20.1523438 L1.84765625,17.4023438 L19.25,17.4023438 L19.25,20.1523438 L1.84765625,20.1523438 Z M9.15234375,9.15234375 L11.9023438,9.15234375 L11.9023438,15.5976562 L9.15234375,15.5976562 L9.15234375,9.15234375 Z M3.65234375,9.15234375 L6.40234375,9.15234375 L6.40234375,15.5976562 L3.65234375,15.5976562 L3.65234375,9.15234375 Z" id="î¡-copy"></path>
                        </g>
                    </g>
                </g>
            </g>
        </g>
    </g>
</svg>