<?xml version="1.0" encoding="UTF-8"?>
<svg width="20px" height="18px" viewBox="0 0 20 18" version="1.1" xmlns="http://www.w3.org/2000/svg" xmlns:xlink="http://www.w3.org/1999/xlink">
    <!-- Generator: sketchtool 52.4 (67378) - http://www.bohemiancoding.com/sketch -->
    <title>568C8CE6-7253-41DE-B21E-D51A17498021</title>
    <desc>Created with sketchtool.</desc>
    <g id="Page-1" stroke="none" stroke-width="1" fill="none" fill-rule="evenodd">
        <g id="BFF-Search-results" transform="translate(-1067.000000, -421.000000)" fill="#5262A9">
            <g id="Stacked-Group-2" transform="translate(241.000000, 387.000000)">
                <g id="Stacked-Group">
                    <g id="Cards-/-List-1-up-/-Filled-/-Avatar-/-Resting">
                        <g id="Icon-and-Text" transform="translate(825.000000, 32.000000)">
                            <path d="M13.4921875,6.66015625 C13.0624979,6.20182062 12.8476562,5.65755523 12.8476562,5.02734375 C12.8476562,4.39713227 13.0696592,3.86002826 13.5136719,3.41601562 C13.9576845,2.97200299 14.4947885,2.75 15.125,2.75 C15.7552115,2.75 16.2923155,2.97200299 16.7363281,3.41601562 C17.1803408,3.86002826 17.4023438,4.39713227 17.4023438,5.02734375 C17.4023438,5.65755523 17.1803408,6.20182062 16.7363281,6.66015625 C16.2923155,7.11849188 15.7552115,7.34765625 15.125,7.34765625 C14.4947885,7.34765625 13.9505231,7.11849188 13.4921875,6.66015625 Z M7.94921875,11 C7.60546703,11 7.2473977,10.8854178 6.875,10.65625 C6.76041609,10.5703121 6.53125172,10.4557299 6.1875,10.3125 L9.15234375,7.34765625 L8.25,6.40234375 C7.33332875,5.4856725 6.11589301,5.02734375 4.59765625,5.02734375 L4.59765625,2.75 C5.77214129,2.75 6.73176711,2.88606635 7.4765625,3.15820312 C8.22135789,3.4303399 8.93749656,3.91015281 9.625,4.59765625 L15.5117188,10.4414062 C15.3398429,10.5559902 15.2109379,10.627604 15.125,10.65625 C14.7526023,10.8854178 14.394533,11 14.0507812,11 C13.7356755,11 13.3919289,10.8854178 13.0195312,10.65625 C12.3893198,10.2838523 11.7161494,10.0976562 11,10.0976562 C10.2838506,10.0976562 9.61068023,10.2838523 8.98046875,10.65625 C8.60807105,10.8854178 8.26432449,11 7.94921875,11 Z M20.1523438,15.125 C19.4934863,15.125 18.8346387,14.9244812 18.1757812,14.5234375 C17.8606755,14.3229157 17.5026062,14.2226562 17.1015625,14.2226562 C16.7291648,14.2226562 16.3854182,14.3229157 16.0703125,14.5234375 C15.411455,14.9244812 14.7382847,15.125 14.0507812,15.125 C13.3919238,15.125 12.7330762,14.9244812 12.0742188,14.5234375 C11.759113,14.3229157 11.4010437,14.2226562 11,14.2226562 C10.6276023,14.2226562 10.2838557,14.3229157 9.96875,14.5234375 C9.30989254,14.9244812 8.63672219,15.125 7.94921875,15.125 C7.29036129,15.125 6.63151371,14.9244812 5.97265625,14.5234375 C5.65755051,14.3229157 5.29948117,14.2226562 4.8984375,14.2226562 C4.5260398,14.2226562 4.18229324,14.3229157 3.8671875,14.5234375 C3.20833004,14.9244812 2.53515969,15.125 1.84765625,15.125 L1.84765625,13.2773438 C2.22005395,13.2773438 2.56380051,13.1770843 2.87890625,12.9765625 C3.53776371,12.5755188 4.21093406,12.375 4.8984375,12.375 C5.55729496,12.375 6.21614254,12.5755188 6.875,12.9765625 C7.19010574,13.1770843 7.54817508,13.2773438 7.94921875,13.2773438 C8.32161645,13.2773438 8.66536301,13.1770843 8.98046875,12.9765625 C9.63932621,12.5755188 10.3124966,12.375 11,12.375 C11.6588575,12.375 12.317705,12.5755188 12.9765625,12.9765625 C13.2916682,13.1770843 13.6497376,13.2773438 14.0507812,13.2773438 C14.4231789,13.2773438 14.7669255,13.1770843 15.0820312,12.9765625 C15.7408887,12.5755188 16.4140591,12.375 17.1015625,12.375 C17.76042,12.375 18.4192675,12.5755188 19.078125,12.9765625 C19.3932307,13.1770843 19.7513001,13.2773438 20.1523438,13.2773438 L20.1523438,15.125 Z M20.1523438,19.25 C19.4934863,19.25 18.8346387,19.0494812 18.1757812,18.6484375 C17.8606755,18.4479157 17.5026062,18.3476562 17.1015625,18.3476562 C16.7291648,18.3476562 16.3854182,18.4479157 16.0703125,18.6484375 C15.411455,19.0494812 14.7382847,19.25 14.0507812,19.25 C13.3919238,19.25 12.7330762,19.0494812 12.0742188,18.6484375 C11.759113,18.4479157 11.4010437,18.3476562 11,18.3476562 C10.6276023,18.3476562 10.2838557,18.4479157 9.96875,18.6484375 C9.30989254,19.0494812 8.63672219,19.25 7.94921875,19.25 C7.26171531,19.25 6.58854496,19.0494812 5.9296875,18.6484375 C5.61458176,18.4479157 5.2708352,18.3476562 4.8984375,18.3476562 C4.49739383,18.3476562 4.13932449,18.4479157 3.82421875,18.6484375 C3.16536129,19.0494812 2.50651371,19.25 1.84765625,19.25 L1.84765625,17.4023438 C2.22005395,17.4023438 2.56380051,17.3020843 2.87890625,17.1015625 C3.53776371,16.7005188 4.21093406,16.5 4.8984375,16.5 C5.55729496,16.5 6.21614254,16.7005188 6.875,17.1015625 C7.19010574,17.3020843 7.54817508,17.4023438 7.94921875,17.4023438 C8.32161645,17.4023438 8.66536301,17.3020843 8.98046875,17.1015625 C9.63932621,16.7005188 10.3124966,16.5 11,16.5 C11.6875034,16.5 12.3606738,16.7005188 13.0195312,17.1015625 C13.334637,17.3020843 13.6783836,17.4023438 14.0507812,17.4023438 C14.4518249,17.4023438 14.8098943,17.3020843 15.125,17.1015625 C15.7838575,16.7005188 16.442705,16.5 17.1015625,16.5 C17.7890659,16.5 18.4622363,16.7005188 19.1210938,17.1015625 C19.4361995,17.3020843 19.7799461,17.4023438 20.1523438,17.4023438 L20.1523438,19.25 Z" id="-copy"></path>
                        </g>
                    </g>
                </g>
            </g>
        </g>
    </g>
</svg>